<?xml version="1.0" encoding="UTF-8" standalone="no"?>
<!-- Created with Inkscape (http://www.inkscape.org/) -->

<svg
   xmlns:dc="http://purl.org/dc/elements/1.1/"
   xmlns:cc="http://creativecommons.org/ns#"
   xmlns:rdf="http://www.w3.org/1999/02/22-rdf-syntax-ns#"
   xmlns:svg="http://www.w3.org/2000/svg"
   xmlns="http://www.w3.org/2000/svg"
   xmlns:inkscape="http://www.inkscape.org/namespaces/inkscape"
   version="1.0"
   width="74.900002"
   height="74.900002"
   viewBox="0 0 74.9 74.9"
   id="svg3310"
   xml:space="preserve"><defs
   id="defs9" /><metadata
   id="metadata10"><rdf:RDF><cc:Work
       rdf:about=""><dc:format>image/svg+xml</dc:format><dc:type
         rdf:resource="http://purl.org/dc/dcmitype/StillImage" /><dc:title /></cc:Work></rdf:RDF></metadata>
<circle
   cx="36.972"
   cy="37.450001"
   r="28.563"
   transform="translate(0.478,-7.6294e-7)"
   id="circle"
   style="fill:#2a2623" />
<g
   id="routenum"
   style="fill:#ffffff"><path
     d="m 28.581,25.657 h 11.055 c 0.96799,2.3e-5 1.87,0.12102 2.706,0.363 0.85798,0.24202 1.595,0.60502 2.211,1.089 0.63798,0.48402 1.133,1.1 1.485,1.848 0.37398,0.72602 0.56098,1.573 0.561,2.541 -2e-5,1.298 -0.34102,2.354 -1.023,3.168 -0.68202,0.81401 -1.672,1.342 -2.97,1.584 v 0.066 c 0.81398,0.08801 1.529,0.30801 2.145,0.66 0.63798,0.35201 1.166,0.79201 1.584,1.32 0.43998,0.52801 0.76998,1.122 0.99,1.782 0.21998,0.66001 0.32998,1.342 0.33,2.046 -2.1e-5,1.474 -0.24202,2.673 -0.726,3.597 -0.48402,0.902 -1.144,1.617 -1.98,2.145 -0.83602,0.506 -1.804,0.847 -2.904,1.023 -1.1,0.176 -2.255,0.264 -3.465,0.264 H 28.581 V 25.657 m 4.422,9.438 h 5.247 c 0.48399,1.4e-5 0.94599,-0.04399 1.386,-0.132 0.46199,-0.10999 0.85799,-0.28599 1.188,-0.528 0.35198,-0.24198 0.62698,-0.54998 0.825,-0.924 0.21998,-0.37398 0.32998,-0.84698 0.33,-1.419 -1.5e-5,-0.90198 -0.29702,-1.617 -0.891,-2.145 -0.59401,-0.52798 -1.54,-0.79198 -2.838,-0.792 h -5.247 v 5.94 m 0,10.164 h 5.742 c 1.342,4e-6 2.387,-0.231 3.135,-0.693 0.76998,-0.484 1.155,-1.342 1.155,-2.574 -1.7e-5,-1.32 -0.38502,-2.244 -1.155,-2.772 -0.77002,-0.54999 -1.826,-0.82499 -3.168,-0.825 h -5.709 v 6.864"
     inkscape:connector-curvature="0"
     id="path2985"
     style="fill:#ffffff" /></g>
</svg>